<svg xmlns="http://www.w3.org/2000/svg" width="960" height="500" viewBox="0 0 960 500" font-family="-apple-system, Segoe UI, Helvetica, Arial, sans-serif">
  <defs>
    <marker id="arr" markerWidth="10" markerHeight="10" refX="8" refY="3" orient="auto" markerUnits="strokeWidth">
      <path d="M0,0 L8,3 L0,6 Z" fill="#6741d9"/>
    </marker>
  </defs>

  <rect x="0" y="0" width="960" height="500" fill="#ffffff"/>
  <text x="32" y="40" font-size="24" font-weight="700" fill="#6741d9">Reference</text>
  <text x="150" y="40" font-size="15" fill="#495057">one MCP server · every past session &amp; memory file · across all your tools</text>

  <!-- Agents column -->
  <text x="40" y="92" font-size="12" font-weight="700" fill="#495057">AI AGENTS (any MCP host)</text>
  <rect x="32" y="104" width="190" height="52" rx="12" fill="#a5d8ff" stroke="#1971c2" stroke-width="2"/>
  <text x="127" y="135" text-anchor="middle" font-size="14" font-weight="700" fill="#212529">Claude Code</text>
  <rect x="32" y="170" width="190" height="52" rx="12" fill="#a5d8ff" stroke="#1971c2" stroke-width="2"/>
  <text x="127" y="201" text-anchor="middle" font-size="14" font-weight="700" fill="#212529">Codex CLI</text>
  <rect x="32" y="236" width="190" height="52" rx="12" fill="#a5d8ff" stroke="#1971c2" stroke-width="2"/>
  <text x="127" y="259" text-anchor="middle" font-size="14" font-weight="700" fill="#212529">Cursor / VS Code</text>
  <text x="127" y="277" text-anchor="middle" font-size="12" fill="#495057">…and more</text>

  <!-- MCP server -->
  <rect x="330" y="120" width="270" height="200" rx="12" fill="#d0bfff" stroke="#6741d9" stroke-width="2"/>
  <text x="465" y="148" text-anchor="middle" font-size="15" font-weight="700" fill="#212529">Reference MCP server</text>
  <text x="465" y="166" text-anchor="middle" font-size="12" fill="#495057">stdio · uvx · zero heavy deps</text>
  <line x1="350" y1="178" x2="580" y2="178" stroke="#b197fc" stroke-width="1"/>
  <text x="350" y="200" font-size="13" fill="#212529">• recall(query)</text>
  <text x="350" y="222" font-size="13" fill="#212529">• search_sessions(...)</text>
  <text x="350" y="244" font-size="13" fill="#212529">• search_memory(...)</text>
  <text x="350" y="266" font-size="13" fill="#212529">• list_sessions / get_session</text>
  <text x="350" y="288" font-size="13" fill="#212529">• list_sources</text>

  <!-- Adapters -->
  <text x="690" y="92" font-size="12" font-weight="700" fill="#495057">ADAPTERS</text>
  <rect x="690" y="104" width="238" height="78" rx="12" fill="#b2f2bb" stroke="#2b8a3e" stroke-width="2"/>
  <text x="809" y="130" text-anchor="middle" font-size="14" font-weight="700" fill="#212529">claude · codex · +yours</text>
  <text x="809" y="150" text-anchor="middle" font-size="12" fill="#495057">globs + parser per tool</text>
  <text x="809" y="168" text-anchor="middle" font-size="12" fill="#495057">add one via reference.toml</text>

  <!-- Stores -->
  <text x="690" y="214" font-size="12" font-weight="700" fill="#495057">YOUR LOCAL DATA (read-only)</text>
  <rect x="690" y="226" width="238" height="40" rx="12" fill="#fff3bf" stroke="#e67700" stroke-width="2"/>
  <text x="809" y="251" text-anchor="middle" font-size="13" fill="#212529">~/.claude/projects/**/*.jsonl</text>
  <rect x="690" y="274" width="238" height="40" rx="12" fill="#fff3bf" stroke="#e67700" stroke-width="2"/>
  <text x="809" y="299" text-anchor="middle" font-size="13" fill="#212529">~/.codex/sessions/**/*.jsonl</text>
  <rect x="690" y="322" width="238" height="40" rx="12" fill="#fff3bf" stroke="#e67700" stroke-width="2"/>
  <text x="809" y="347" text-anchor="middle" font-size="12" fill="#212529">CLAUDE.md · AGENTS.md · memory</text>

  <!-- arrows agents -> server -->
  <path d="M222,130 C280,130 280,200 330,200" fill="none" stroke="#6741d9" stroke-width="2" marker-end="url(#arr)"/>
  <path d="M222,196 L330,210" fill="none" stroke="#6741d9" stroke-width="2" marker-end="url(#arr)"/>
  <path d="M222,262 C280,262 290,240 330,228" fill="none" stroke="#6741d9" stroke-width="2" marker-end="url(#arr)"/>
  <!-- arrow server -> adapters -->
  <path d="M600,160 C645,150 660,145 690,143" fill="none" stroke="#6741d9" stroke-width="2" marker-end="url(#arr)"/>
  <!-- arrow adapters -> stores -->
  <path d="M809,182 L809,224" fill="none" stroke="#6741d9" stroke-width="2" marker-end="url(#arr)"/>

  <!-- vice-versa note -->
  <rect x="32" y="360" width="896" height="58" rx="10" fill="#f8f0fc" stroke="#9c36b5" stroke-width="2"/>
  <text x="48" y="384" font-size="13" font-weight="700" fill="#9c36b5">The point:</text>
  <text x="120" y="384" font-size="13" fill="#212529">Claude Code can search your Codex history — and Codex can search your Claude history.</text>
  <text x="48" y="406" font-size="13" fill="#212529">One server, registered in each tool, reads every tool's sessions + memory. Nothing leaves your machine.</text>

  <text x="32" y="450" font-size="12" fill="#495057">Add a new tool → it instantly works in all the others. Agents that set up a new tool open a PR so everyone gets it.</text>
</svg>
